<mxfile host="app.diagrams.net" modified="2024-01-24T20:25:46.849Z" agent="Mozilla/5.0 (Windows NT 10.0; Win64; x64) AppleWebKit/537.36 (KHTML, like Gecko) Chrome/120.0.0.0 Safari/537.36" version="23.0.1" etag="cmYCzqL2ywmt1-9MlQhv" type="github">
  <diagram name="PÃ¡gina-1" id="S1caKCqgiLpW6I3q3utP">
    <mxGraphModel>
      <root>
        <mxCell id="0" />
        <mxCell id="1" parent="0" />
      </root>
    </mxGraphModel>
  </diagram>
</mxfile>
